# xmcd CD database file
#
# Track frame offsets:
#	150
#	12246
#	29055
#	55741
#	70795
#	88484
#	102584
#	117697
#	132509
#	145704
#
# Disc length: 2196 seconds
#
# Revision: 0
# Processed by: cddbd v1.5.1PL0 Copyright (c) Steve Scherf et al.
# Submitted via: CDex 1.40Release
#
DISCID=9808920a
DTITLE=Mike Clark - Clarkology
DYEAR=2005
DGENRE=Blues
TTITLE0=Zydeco Man
TTITLE1=Forget about you
TTITLE2=Morning after blues
TTITLE3=Alibis and Lies
TTITLE4=Stone House
TTITLE5=Red Mile Strut
TTITLE6=Tribute to Big
TTITLE7=Storm brewin on the rise
TTITLE8=Deeper in the blues
TTITLE9=Procrastination boogy
EXTD=YEAR: 2005 ID3G: 0
EXTT0=
EXTT1=
EXTT2=
EXTT3=
EXTT4=
EXTT5=
EXTT6=
EXTT7=
EXTT8=
EXTT9=
PLAYORDER=
